<mxfile host="app.diagrams.net" modified="2021-12-18T08:48:10.971Z" agent="5.0 (Macintosh; Intel Mac OS X 10_15_7) AppleWebKit/537.36 (KHTML, like Gecko) Chrome/96.0.4664.110 Safari/537.36" etag="6QdKjRIC6WlK0QXq3DSx" version="16.0.0" type="github">
  <diagram id="NDha9XyJWKI6wTgdjnXo" name="Page-1">
    <mxGraphModel dx="702" dy="454" grid="1" gridSize="10" guides="1" tooltips="1" connect="1" arrows="1" fold="1" page="1" pageScale="1" pageWidth="850" pageHeight="1100" math="0" shadow="0">
      <root>
        <mxCell id="0" />
        <mxCell id="1" parent="0" />
        <mxCell id="OX3iMa-Q4UsDjBHExUNI-1" value="Exchange User" style="shape=umlActor;verticalLabelPosition=bottom;verticalAlign=top;html=1;outlineConnect=0;strokeWidth=4;" vertex="1" parent="1">
          <mxGeometry x="140" y="80" width="30" height="60" as="geometry" />
        </mxCell>
        <mxCell id="OX3iMa-Q4UsDjBHExUNI-2" value="Asset Pool" style="outlineConnect=0;dashed=0;verticalLabelPosition=bottom;verticalAlign=top;align=center;html=1;shape=mxgraph.aws3.bank;fillColor=#000000;gradientColor=none;" vertex="1" parent="1">
          <mxGeometry x="370" y="80" width="59.75" height="59.75" as="geometry" />
        </mxCell>
        <mxCell id="OX3iMa-Q4UsDjBHExUNI-3" value="" style="endArrow=none;html=1;rounded=0;strokeWidth=3;" edge="1" parent="1">
          <mxGeometry width="50" height="50" relative="1" as="geometry">
            <mxPoint x="155" y="410" as="sourcePoint" />
            <mxPoint x="154.5" y="170" as="targetPoint" />
          </mxGeometry>
        </mxCell>
        <mxCell id="OX3iMa-Q4UsDjBHExUNI-4" value="" style="endArrow=none;html=1;rounded=0;strokeWidth=3;" edge="1" parent="1">
          <mxGeometry width="50" height="50" relative="1" as="geometry">
            <mxPoint x="399" y="410" as="sourcePoint" />
            <mxPoint x="399.38" y="169.75" as="targetPoint" />
          </mxGeometry>
        </mxCell>
        <mxCell id="OX3iMa-Q4UsDjBHExUNI-10" value="" style="shape=image;html=1;verticalAlign=top;verticalLabelPosition=bottom;labelBackgroundColor=#ffffff;imageAspect=0;aspect=fixed;image=https://cdn1.iconfinder.com/data/icons/cryptocurrency-blockchain-fintech-free/32/Cryptocurrency_Ethereum_ETH-128.png;strokeWidth=4;fillColor=#000000;" vertex="1" parent="1">
          <mxGeometry x="220" y="190" width="50" height="50" as="geometry" />
        </mxCell>
        <mxCell id="OX3iMa-Q4UsDjBHExUNI-11" value="" style="shape=image;html=1;verticalAlign=top;verticalLabelPosition=bottom;labelBackgroundColor=#ffffff;imageAspect=0;aspect=fixed;image=https://cdn3.iconfinder.com/data/icons/currency-and-cryptocurrency-signs/64/cryptocurrency_blockchain_Ethereum_ETH-128.png;strokeWidth=4;fillColor=#000000;" vertex="1" parent="1">
          <mxGeometry x="230" y="260" width="128" height="128" as="geometry" />
        </mxCell>
        <mxCell id="OX3iMa-Q4UsDjBHExUNI-13" value="" style="shape=image;html=1;verticalAlign=top;verticalLabelPosition=bottom;labelBackgroundColor=#ffffff;imageAspect=0;aspect=fixed;image=https://cdn1.iconfinder.com/data/icons/3d-front-color/128/eth-front-color.png;strokeWidth=4;fillColor=#000000;" vertex="1" parent="1">
          <mxGeometry x="425" y="210" width="128" height="128" as="geometry" />
        </mxCell>
      </root>
    </mxGraphModel>
  </diagram>
</mxfile>
